<svg xmlns="http://www.w3.org/2000/svg" viewBox="0 0 141 48" width="141" height="48"><path d="M24 2.5l18.6 10.75v21.5L24 45.5 5.4 34.75v-21.5z" fill="#fff"/><path d="M31 15.5H20.5a4.75 4.75 0 0 0 0 9.5h7a4.75 4.75 0 0 1 0 9.5H17" fill="none" stroke="#0d1b2e" stroke-width="4.4" stroke-linecap="round" stroke-linejoin="round"/><path d="M71.30078125 20.353515625H75.51953125C75.4609375 16.603515625 72.35546875 13.99609375 67.66796875 13.99609375C63.0390625 13.99609375 59.640625 16.544921875 59.640625 20.412109375C59.640625 23.517578125 61.837890625 25.3046875 65.412109375 26.18359375L67.7265625 26.740234375C70.041015625 27.326171875 71.359375 28.0 71.359375 29.435546875C71.359375 31.017578125 69.865234375 32.1015625 67.55078125 32.1015625C65.20703125 32.1015625 63.5078125 31.017578125 63.361328125 28.87890625H59.083984375C59.201171875 33.419921875 62.482421875 35.79296875 67.609375 35.79296875C72.765625 35.79296875 75.8125 33.33203125 75.8125 29.435546875C75.8125 25.890625 73.087890625 24.044921875 69.455078125 23.224609375L67.55078125 22.755859375C65.734375 22.345703125 64.123046875 21.642578125 64.15234375 20.119140625C64.181640625 18.712890625 65.412109375 17.6875 67.638671875 17.6875C69.77734375 17.6875 71.125 18.68359375 71.30078125 20.353515625ZM81.928515625 35.5 83.53984375 30.607421875H91.215625L92.79765625 35.5H97.514453125L90.190234375 14.2890625H84.5359375L77.182421875 35.5ZM84.653125 27.1796875 87.28984375 19.064453125H87.436328125L90.10234375 27.1796875ZM104.011328125 14.2890625H99.616796875V35.5H104.011328125ZM107.28554687500001 35.5H111.68007812500001V26.7109375H120.35195312500001V23.078125H111.68007812500001V17.921875H121.26015625000001V14.2890625H107.28554687500001ZM123.86054687500001 35.5H138.128125V31.8671875H128.255078125V26.7109375H137.36640625V23.078125H128.255078125V17.921875H138.098828125V14.2890625H123.86054687500001Z" fill="#fff"/></svg>