<svg xmlns="http://www.w3.org/2000/svg" viewBox="0 0 100 100"><!-- 원저작: 자체 제작(단순화). 환경 유해성 -->
<polygon points="50,3 97,50 50,97 3,50" fill="#fff" stroke="#dc2626" stroke-width="6"/>
<path d="M34 20L34 55M34 30L24 22M34 34L44 24M34 42L26 38M34 46L42 40" stroke="#000" stroke-width="3" fill="none" stroke-linecap="round"/>
<path fill="#000" d="M60 55C66 50 76 50 82 55 78 58 74 58 70 57 74 60 76 63 76 66 70 66 64 62 60 55Z"/>
<circle cx="63" cy="55" r="1.5" fill="#fff"/>
<path d="M10 68Q20 62 30 68T50 68 70 68 90 68" stroke="#000" stroke-width="4" fill="none" stroke-linecap="round"/>
<path d="M10 78Q20 72 30 78T50 78 70 78 90 78" stroke="#000" stroke-width="4" fill="none" stroke-linecap="round"/>
</svg>
